<svg xmlns="http://www.w3.org/2000/svg" viewBox="0 0 971.81 960.6"><g id="Layer_2" data-name="Layer 2"><g id="Layer_1-2" data-name="Layer 1"><path d="M165.37,342.88c-4.17,39.89-5,97.77-33.64,130.26-15.2,17.24-36.7,18.17-58.09,17.69C.77,489.22-2.81,412.94,9.16,356.76q23.67-4.72,47.47-8.83c-2.37,16-5.89,50.81,20.14,48.62,23.88-2,31.22-20.1,34.37-41.84,3.79-26.13-26.41-28.62-43.82-38-37.9-20.49-19.39-64.56-2.75-93.1C94.78,171.8,141.06,120.09,190.18,83c8.4-6.35,20.92-17.84,29.23-7.7,4.53,5.52-1.31,24.42-2.43,29.85-4.77,23.16-12,45.89-18.63,68.56-15.3,4.52-30.45,9.53-45.47,14.89.62-1.86,17.46-48.42-4.32-35.48-16.29,9.68-28.71,24.24-38.37,42.08-11,20.34,17.13,20.35,29,26.92C178.34,243.77,169.09,307.24,165.37,342.88Z"/><path d="M161.4,474.85c.77-143.45,25.25-286.49,83.5-418.14C258.4,50,272,43.84,285.9,38c-48,140.48-67.29,288.8-67.86,436.86Z"/><path d="M263.24,474.94l-37,0c.55-148.68,19.15-297.64,65.63-439.24,17.35-6.53,34.78-12.27,52.6-17.33-8.56,85.26-6.89,170.88-1.49,256.29C360.62,184.54,381.13,95.1,403.07,6,424.18,3,445.19,1.09,466.5.19,462.52,158.43,461,316.72,461,475H397.9c.11-112.22,3.26-224.38,10.26-336.38-21.56,111.64-41.4,223.58-56,336.37l-44.91,0C294,368.4,285.63,261.16,290.32,153.73,271.92,259.92,263.55,367.2,263.24,474.94Z"/><path d="M533.75,475H470q0-237.49,3.28-475A591.08,591.08,0,0,1,589.56,10.54C606,16,614.31,40.58,620,54.84c13.35,33.34,21.33,69,26.18,104.06,4.94,35.7,7.34,73.5,1.26,109.72-2.32,13.76-7.27,45.53-26.5,45.95q-44.25-2.07-88.55-2.93Q533.72,393.33,533.75,475Zm-3.94-276q27,1,53.88,2.71c14.64-4.59,9.57-39.65,8.69-49.42-1.1-12.38-2-43.11-16.53-49.92-16.49-1.77-33.05-3-49.62-3.8Q528.3,148.81,529.81,199Z"/><path d="M665.62,32.09c33,107.27,50.74,218,58.55,329.86q49.94,3.23,99.77,7.71c3.36,35,5.09,70,5.25,105.16q-80.31.09-160.61.14c-.38-153.29-13.23-306.9-46.53-456.73C636.76,22.4,651.21,27,665.62,32.09Z"/><path d="M828.34,474.82c-.82-141.36-27.62-281.91-90-409.42a563.44,563.44,0,0,1,99.79,72.42,577.34,577.34,0,0,1,50,62.19,761.56,761.56,0,0,0-72.34-38.3c9.12,20.31,17.35,40.83,24.84,61.8,24.48,8.17,48.53,17.13,72.34,27.08a527.34,527.34,0,0,1,24.76,70.56q-36.93-9.31-74.23-16.9c4.64,21.66,8.48,43.34,11.58,65.26q44.13,5.28,88.08,11.9a558.1,558.1,0,0,1,8.66,93.2Q900.08,474.75,828.34,474.82Z"/><path d="M132.05,812.17C46.94,717.68,1.46,599.41,0,472.34q55.68-.1,111.36-.17c25.91,1.63,36.52,49.53,42,67.94,15.46,51.76,25.26,105.28,35.8,158.17,9,45.29,18.88,90.6,26.26,136.22.73,4.49,9.71,46-6.26,35.75A578.27,578.27,0,0,1,132.05,812.17Zm-11.79-44.65c9.13,4.6,18.4,9,27.74,13.13,16.56,3.47-8-87.5-9.4-93.15-6.68-26.78-13.6-54.11-23.86-80-4.53-11.42-11.42-32.22-25.16-35.68Q72.86,570,56.16,568C67,637.93,88,704.43,120.26,767.52Z"/><path d="M251.09,893.35C194.39,760.26,170.72,616.28,170,472.1q81.83-.08,163.66-.12.09,56,2,112Q283,582,230.4,578.81q2.78,39.78,7.26,79.37,46.41,5.19,93,8.54,1.17,48.15,4,96.2-41.77-5.07-83.13-12.61,6.31,33.45,14,66.56c29.84,7.34,59.8,13.24,90.18,17.81q6.64,50.39,15.35,100.42A575.83,575.83,0,0,1,251.09,893.35Z"/><path d="M524.86,823.7c-2,56.12-5.37,142.41-80,136.62-70.55-5.47-85.61-100.4-92.87-155q27,3.25,54,5.39c2.15,20.66,6.21,56.87,33.25,58.67,25.81,1.72,29.76-17,29.73-39.19-.06-29.41-40.26-40.57-60.76-54.91-49.49-34.63-66.56-94.89-69.43-152.37-2.26-45-5.32-106.17,24.77-144.46,16.8-21.38,41.79-26,67.55-26.08,93.44-.16,97.46,109.62,97.2,180.12-20.19.32-40.37.38-60.57.31-.89-23.44-3.35-65.09-35.42-65.59-29.27-.46-33.48,20.31-33,45.85.56,32.87,42.63,46.26,65.51,62.6C513.3,710.37,526.9,766.77,524.86,823.7Z"/><path d="M522.42,945.63C531.58,787.92,535,629.92,535.11,472l62.52,0c-.22,156.42-7.93,313-28.33,468.16C553.78,942.7,538.11,944.45,522.42,945.63Z"/><path d="M592.94,721.87c4.37-69,8.95-145,37.86-209.27,13.45-29.92,35.84-59.52,71.7-59.23,84.67.7,91.49,113.31,84.88,173.7q-28.51,3.42-57.1,6.26c.62-20.9.14-60.82-30.27-58.64-17.18,1.22-25.75,23.06-30.72,36.92-12,33.58-16,70.41-19.48,105.44-1.24,12.47-15.84,131,17,122.58,23.39-6,35.2-44.65,42.62-65.22q-18.27,3.81-36.67,7,9.43-46.54,16.87-93.42Q735,682.71,780,675.37c-13.6,74.91-34,147.78-63.92,217.86-8.05,4-12.13,5.88-20.39,9.51q11.44-31.72,20.87-64c-15.1,30.83-37.69,83.46-73.32,96.38C567.84,962.43,591.42,745.76,592.94,721.87Z"/><path d="M745.34,877.63c-8.15,4.72-16.49,9.22-24.91,13.44,57.84-132.05,82.11-275.32,82.87-419l64.46.08c18.93,84.1,33,176.19,8.72,260.81,39.87-82,59.57-169.57,60.44-260.71l30.76,0c-1.47,127-47.08,245.1-132.29,339.38-13,11.65-26.34,22.66-40.23,33.23,40.16-69.78,40-155.82,33.2-233.56C814.36,704.21,788.05,793.86,745.34,877.63Z"/></g></g></svg>